<svg width="100" height="100" viewBox="0 0 100 100" fill="none" xmlns="http://www.w3.org/2000/svg">
<rect width="100" height="100" fill="white"/>
<g clip-path="url(#clip0_330_19)">
<path d="M35.5955 44.5948V53.6573H29.2678C29.2099 53.6574 29.1526 53.6456 29.0991 53.6225C29.0457 53.5995 28.9971 53.5657 28.9562 53.523C28.9152 53.4803 28.8828 53.4297 28.8607 53.3739C28.8386 53.3182 28.8272 53.2585 28.8273 53.1981V50.9749H26.2314V54.9621C26.2314 55.1431 26.2655 55.3222 26.3319 55.4894C26.3983 55.6566 26.4956 55.8085 26.6183 55.9364C26.741 56.0643 26.8867 56.1658 27.047 56.235C27.2074 56.3042 27.3792 56.3398 27.5527 56.3397H38.1919V44.5948H35.5955Z" fill="#BED600"/>
<path d="M44.1252 44.5948H41.5293V56.3397H44.1252V44.5948Z" fill="#BED600"/>
<path d="M58.1029 44.5948H47.4868V56.3397H50.0827V47.2772H56.4104C56.4683 47.2772 56.5256 47.289 56.5791 47.3121C56.6325 47.3351 56.6811 47.3689 56.722 47.4116C56.7629 47.4542 56.7954 47.5049 56.8175 47.5606C56.8396 47.6164 56.8509 47.6761 56.8509 47.7364V56.3397H59.4467V45.9724C59.4411 45.605 59.2971 45.2547 59.0459 44.9969C58.7947 44.7392 58.4564 44.5948 58.1039 44.5948" fill="#BED600"/>
<path d="M16.1021 49.9597L15.7315 49.6696L14.6191 48.8721V48.7753V48.4393C14.624 47.8391 14.57 47.2399 14.458 46.6512C14.458 46.603 14.4349 46.5302 14.4349 46.4832C14.4118 46.435 14.4118 46.3622 14.3887 46.29C14.4604 46.226 14.5381 46.1697 14.6207 46.122C16.0727 44.9942 17.6731 44.0908 19.3726 43.4396C19.4187 43.4155 19.4886 43.3914 19.5337 43.3673C19.5568 43.3673 19.5799 43.3433 19.603 43.3433C20.1643 43.1457 20.7497 43.0326 21.3416 43.0073H21.4109C21.7277 43.0043 22.035 43.1195 22.2774 43.3323C22.5197 43.545 22.681 43.8411 22.7322 44.167C22.7287 44.2011 22.7368 44.2355 22.7553 44.2639C22.8209 44.7685 22.8519 45.2773 22.8482 45.7865C22.8481 46.7549 22.7399 47.7199 22.526 48.6621V48.7103C22.2892 49.7094 21.7126 50.585 20.9033 51.1743C20.2872 51.6266 19.5677 51.9016 18.8172 51.9717L16.1021 49.9597Z" fill="#BED600"/>
<path d="M15.1287 54.1647L14.2248 53.5364L14.2017 53.5123L14.2248 53.3191L14.3639 52.2316L14.387 52.1347L14.5954 50.6608L15.082 50.878L16.1025 51.3132L16.5198 51.4812L18.6522 52.3996C19.0305 52.7604 19.3244 53.2067 19.5116 53.7044C19.514 53.7226 19.5221 53.7395 19.5347 53.7525C19.5347 53.7766 19.5347 53.7766 19.5578 53.8007C19.5809 53.8488 19.5809 53.8976 19.604 53.9457C19.6275 54.0077 19.6431 54.0727 19.6501 54.1389C19.7041 54.4011 19.7119 54.6713 19.6732 54.9364C19.6505 55.1829 19.5797 55.4221 19.4654 55.6392C19.2249 56.1681 18.806 56.5862 18.2886 56.8135C17.7712 57.0407 17.1916 57.0613 16.6606 56.8712H16.6375C16.6144 56.8712 16.5913 56.8471 16.5682 56.8471C16.5651 56.8472 16.5621 56.8466 16.5593 56.8454C16.5564 56.8442 16.5538 56.8425 16.5517 56.8402C16.5495 56.838 16.5478 56.8353 16.5467 56.8323C16.5456 56.8294 16.545 56.8262 16.5451 56.823C16.4291 56.7748 16.3131 56.7261 16.2228 56.678C15.3941 56.2213 14.764 55.4519 14.4611 54.527L15.133 54.648L15.3881 54.6961V54.3338L15.1287 54.1647Z" fill="#BED600"/>
<path d="M80.7018 44.5948H78.106V56.3397H80.7018V44.5948Z" fill="#BED600"/>
<path d="M64.106 44.5948C63.9324 44.5948 63.7606 44.6304 63.6002 44.6996C63.4399 44.7688 63.2942 44.8702 63.1715 44.9982C63.0488 45.1261 62.9515 45.278 62.8851 45.4452C62.8187 45.6123 62.7846 45.7915 62.7847 45.9724V56.3397H65.3805V52.6667H72.1718V56.3397H74.7677V44.5948H64.106ZM65.3811 47.7364C65.381 47.6761 65.3923 47.6164 65.4145 47.5606C65.4366 47.5049 65.469 47.4542 65.5099 47.4116C65.5508 47.3689 65.5994 47.3351 65.6529 47.3121C65.7063 47.289 65.7636 47.2772 65.8215 47.2772H72.1492V49.9837H65.3574V47.7364H65.3811Z" fill="#BED600"/>
<path d="M94.6792 44.5948H84.04V56.3397H86.6128V47.2772H92.9637C93.0215 47.2772 93.0788 47.289 93.1323 47.3121C93.1857 47.3351 93.2343 47.3689 93.2752 47.4116C93.3162 47.4542 93.3486 47.5049 93.3707 47.5606C93.3928 47.6164 93.4042 47.6761 93.4041 47.7364V49.9596H96V45.9724C95.9962 45.6083 95.8558 45.2602 95.6088 45.0027C95.3618 44.7452 95.0279 44.5988 94.6787 44.5948" fill="#BED600"/>
<path d="M11.745 49.9597L12.1156 49.6696L13.228 48.8721V48.7753V48.4393C13.223 47.8391 13.277 47.2399 13.3891 46.6512C13.3891 46.603 13.4122 46.5302 13.4122 46.4832C13.4353 46.435 13.4353 46.3622 13.4584 46.29C13.3866 46.226 13.3089 46.1697 13.2263 46.122C11.7744 44.9942 10.1739 44.0908 8.47449 43.4396C8.4283 43.4155 8.35848 43.3914 8.31336 43.3673C8.29026 43.3673 8.26717 43.3433 8.24407 43.3433C7.68278 43.1457 7.09735 43.0326 6.50543 43.0073H6.43615C6.11937 43.0043 5.81203 43.1195 5.56969 43.3323C5.32735 43.545 5.16601 43.8411 5.11485 44.167C5.11839 44.2011 5.1102 44.2355 5.09175 44.2639C5.02618 44.7685 4.99513 45.2773 4.99883 45.7865C4.99898 46.7549 5.10713 47.7199 5.3211 48.6621V48.7103C5.55789 49.7094 6.13446 50.585 6.94372 51.1743C7.55983 51.6266 8.27937 51.9016 9.02987 51.9717L11.745 49.9597Z" fill="#BED600"/>
<path d="M12.695 54.1647L13.599 53.5364L13.622 53.5123L13.599 53.3191L13.4598 52.2316L13.4367 52.1347L13.2267 50.6608L12.7401 50.878L11.7196 51.3132L11.3023 51.4812L9.2161 52.3996C8.83784 52.7604 8.54386 53.2067 8.35672 53.7044C8.35426 53.7226 8.34615 53.7395 8.33362 53.7525C8.33362 53.7766 8.33363 53.7766 8.31053 53.8007C8.28743 53.8488 8.28743 53.8976 8.26434 53.9457C8.24074 54.0077 8.22521 54.0727 8.21815 54.1389C8.1642 54.4011 8.15638 54.6713 8.19505 54.9364C8.21827 55.1822 8.28917 55.4205 8.40345 55.6369C8.6439 56.1659 9.06285 56.584 9.58026 56.8112C10.0977 57.0385 10.6772 57.059 11.2083 56.8689H11.2314C11.2545 56.8689 11.2775 56.8448 11.3006 56.8448C11.3037 56.8449 11.3067 56.8444 11.3096 56.8432C11.3124 56.842 11.315 56.8402 11.3171 56.838C11.3193 56.8357 11.321 56.833 11.3221 56.8301C11.3233 56.8271 11.3238 56.8239 11.3237 56.8208C11.4398 56.7726 11.5558 56.7239 11.646 56.6757C12.4747 56.219 13.1049 55.4496 13.4077 54.5248L12.7433 54.648L12.4882 54.6961V54.3338L12.695 54.1647Z" fill="#BED600"/>
</g>
<defs>
<clipPath id="clip0_330_19">
<rect width="91" height="14" fill="white" transform="translate(5 43)"/>
</clipPath>
</defs>
</svg>
