<svg width="400" height="300" viewBox="0 0 400 300" fill="none" xmlns="http://www.w3.org/2000/svg">
<rect width="400" height="300" fill="white"/>
<mask id="mask0_336_91" style="mask-type:luminance" maskUnits="userSpaceOnUse" x="0" y="113" width="400" height="75">
<path d="M400 113H0V187.074H400V113Z" fill="white"/>
</mask>
<g mask="url(#mask0_336_91)">
<path d="M400 113H0V187.074H400V113Z" fill="white"/>
<path d="M6.26592 163.847C6.25964 163.136 6.39564 162.431 6.66592 161.773C6.92852 161.144 7.31664 160.574 7.80664 160.099C8.30064 159.626 8.88524 159.258 9.52516 159.018C10.2236 158.745 10.968 158.609 11.7178 158.618C12.4674 158.611 13.2114 158.747 13.9104 159.018C14.5485 159.262 15.1324 159.63 15.6289 160.099C16.1189 160.574 16.507 161.144 16.7696 161.773C17.0431 162.433 17.1838 163.14 17.1838 163.855C17.1838 164.569 17.0431 165.276 16.7696 165.936C16.5068 166.561 16.1185 167.126 15.6289 167.595C15.1324 168.065 14.5485 168.432 13.9104 168.677C13.2084 168.935 12.4658 169.066 11.7178 169.062C10.9695 169.068 10.2264 168.938 9.52516 168.677C8.88524 168.436 8.30064 168.068 7.80664 167.595C7.31704 167.126 6.9288 166.561 6.66592 165.936C6.39448 165.274 6.25844 164.563 6.26592 163.847ZM15.4807 178.855L14.2807 177.506V178.855H7.1548V171.077H9.39184V176.87H14.2807V177.151C15.2834 176.792 16.1941 176.215 16.9474 175.462C17.6718 174.728 18.1838 173.812 18.4289 172.81H14.7252V170.87H23.8807V172.81H20.4881C20.4881 173.032 20.3844 173.24 20.34 173.432C20.2964 173.628 20.242 173.821 20.177 174.01C20.746 174.729 21.4382 175.341 22.2215 175.818C23.038 176.302 23.9081 176.69 24.8141 176.973L23.7178 178.751C22.8746 178.451 22.0653 178.064 21.303 177.595C20.5592 177.112 19.8732 176.546 19.2585 175.906C18.7874 176.58 18.2238 177.183 17.5844 177.699C16.9466 178.19 16.237 178.58 15.4807 178.855ZM8.48812 163.847C8.47392 164.694 8.78096 165.514 9.3474 166.144C9.65368 166.458 10.0235 166.704 10.4322 166.865C10.8408 167.026 11.2791 167.098 11.7178 167.077C12.1564 167.097 12.5943 167.025 13.0029 166.864C13.4114 166.703 13.7813 166.458 14.0881 166.144C14.6514 165.511 14.9627 164.694 14.9627 163.847C14.9627 163 14.6514 162.183 14.0881 161.551C13.7843 161.232 13.4154 160.982 13.0063 160.818C12.5973 160.655 12.1578 160.581 11.7178 160.603C11.2776 160.58 10.8378 160.654 10.4287 160.817C10.0195 160.981 9.6506 161.231 9.3474 161.551C8.78096 162.18 8.47392 163.001 8.48812 163.847ZM21.4066 158.618H23.703V162.825H26.5918V164.855H23.703V169.699H21.4066V158.618Z" fill="#38393A"/>
<path d="M46.5781 168.85H66.1929V170.865H46.5781V168.85ZM47.6893 166.124V158.82H49.9265V164.168H65.3041V166.124H47.6893ZM65.3041 176.865V178.85H47.6893V172.642H49.9265V176.865H65.3041Z" fill="#38393A"/>
<path d="M106.947 176.172V178.187H87.4062V176.172H96.1022V170.987H98.3394V176.172H106.947ZM105.836 159.031V169.846H88.4578V159.031H105.836ZM90.695 167.816H103.613V161.002H90.695V167.816Z" fill="#38393A"/>
<path d="M128.117 169.298H147.717V171.283H128.117V169.298ZM146.665 167.016H129.228V159.031H146.665V161.031H131.465V165.031H146.665V167.016ZM146.784 176.868V178.854H129.228V172.854H131.465V176.868H146.784Z" fill="#38393A"/>
<path d="M194.798 159.029H204.443V160.51C204.457 161.767 204.21 163.013 203.717 164.169C203.236 165.271 202.558 166.275 201.717 167.132C200.851 168.011 199.851 168.746 198.754 169.31C197.58 169.898 196.328 170.312 195.036 170.54L193.969 168.732C195.103 168.569 196.21 168.249 197.258 167.784C198.205 167.367 199.08 166.802 199.85 166.11C200.537 165.457 201.091 164.678 201.48 163.814C201.901 162.947 202.143 162.005 202.191 161.043H194.784L194.798 159.029ZM204.636 172.362C205.17 172.947 205.76 173.478 206.398 173.947C207.054 174.445 207.748 174.89 208.472 175.281C209.195 175.674 209.942 176.021 210.71 176.317C211.447 176.592 212.205 176.81 212.976 176.969L211.939 178.791C211.16 178.608 210.396 178.36 209.658 178.051C208.886 177.735 208.134 177.374 207.406 176.969C206.675 176.535 205.979 176.075 205.317 175.591C204.69 175.14 204.096 174.645 203.539 174.11C202.562 175.354 201.361 176.404 199.998 177.206C198.699 178 197.27 178.557 195.776 178.851L194.665 177.073C195.612 176.895 196.536 176.612 197.421 176.229C198.302 175.845 199.128 175.347 199.88 174.747C200.625 174.157 201.292 173.475 201.865 172.717C202.446 171.931 202.906 171.063 203.228 170.14L205.258 170.836C205.169 171.117 205.065 171.384 204.961 171.636C204.858 171.888 204.769 172.169 204.636 172.421V172.362ZM212.176 158.555V171.665H209.939V165.503H204.561V163.488H209.939V158.614L212.176 158.555Z" fill="#38393A"/>
<path d="M322.961 116.47C321.109 116.47 320.205 118.292 319.998 119.004L308.798 149.714H314.843C315.663 149.655 316.445 149.348 317.088 148.835C317.73 148.322 318.203 147.627 318.443 146.84L318.546 146.544L325.124 126.929L330.369 142.44H324.443L323.154 146.485C323.154 146.485 322.161 149.537 324.783 149.537H334.072L338.976 142.263L329.687 116.47H322.961ZM296.013 116.47C295.314 116.484 294.636 116.706 294.063 117.107C293.491 117.508 293.051 118.07 292.798 118.722L292.561 119.314L286.887 134.129L280.487 116.352H274.635C273.939 116.367 273.273 116.638 272.765 117.114C272.257 117.59 271.941 118.236 271.88 118.929V119.285L266.961 149.655H272.591C273.344 149.657 274.07 149.371 274.621 148.856C275.171 148.342 275.505 147.637 275.554 146.885V146.544L277.791 130.529L285.065 149.655H288.309L295.924 130.529L297.865 146.544V146.826C297.899 147.588 298.227 148.308 298.779 148.835C299.331 149.362 300.065 149.656 300.828 149.655H306.457L301.731 116.426L296.013 116.47ZM360.309 142.514H353.435V116.426H347.939C347.571 116.404 347.203 116.461 346.859 116.592C346.515 116.722 346.203 116.924 345.943 117.185C345.682 117.445 345.48 117.758 345.349 118.102C345.218 118.446 345.162 118.814 345.183 119.181V149.655H363.183V145.211C363.189 144.832 363.115 144.455 362.966 144.106C362.817 143.757 362.596 143.444 362.319 143.185C362.041 142.927 361.711 142.73 361.353 142.606C360.994 142.483 360.613 142.437 360.235 142.47L360.309 142.514ZM382.531 142.514H375.643V116.426H370.072C369.706 116.423 369.343 116.496 369.006 116.64C368.669 116.784 368.366 116.996 368.116 117.264C367.865 117.531 367.673 117.847 367.551 118.192C367.428 118.538 367.379 118.905 367.405 119.27V149.655H385.405V145.078C385.397 144.708 385.313 144.344 385.157 144.009C385.001 143.674 384.778 143.374 384.501 143.13C384.225 142.885 383.9 142.7 383.548 142.586C383.197 142.473 382.825 142.433 382.457 142.47L382.531 142.514Z" fill="#20A899"/>
<path d="M230.477 149.357C233.884 149.357 235.099 147.668 236.403 145.934L242.759 137.372L250.64 147.994C250.971 148.394 251.382 148.722 251.846 148.956C252.31 149.191 252.817 149.327 253.336 149.357H259.573L246.714 132.038L258.077 116.75H251.959C251.439 116.779 250.932 116.915 250.468 117.15C250.004 117.384 249.593 117.712 249.262 118.112L231.736 141.638V116.75H228.151C227.735 116.721 227.317 116.776 226.921 116.91C226.525 117.043 226.161 117.254 225.847 117.529C225.533 117.804 225.276 118.139 225.092 118.514C224.908 118.888 224.799 119.296 224.773 119.712V146.438C224.83 147.278 225.218 148.062 225.851 148.617C226.484 149.172 227.311 149.454 228.151 149.401L230.477 149.357Z" fill="#38393A"/>
<path d="M106.374 118.922C103.668 116.641 99.7173 115.5 94.5221 115.5C83.3517 115.5 77.7713 121.317 77.7813 132.952C77.7813 138.878 79.1541 143.322 81.8997 146.285C84.6457 149.248 88.8825 150.705 94.6109 150.656C105.821 150.656 111.431 144.809 111.44 133.115C111.44 126.527 109.742 121.821 106.344 118.996M94.4925 144.878C88.4281 144.878 85.3961 140.927 85.3961 133.026C85.3961 125.273 88.4281 121.396 94.4925 121.396C100.556 121.396 103.608 125.347 103.648 133.248C103.648 141.06 100.596 144.962 94.4925 144.952" fill="#38393A"/>
<path d="M206.428 121.98H214.902C215.725 121.972 216.512 121.642 217.094 121.06C217.675 120.478 218.006 119.691 218.013 118.869V116.188H206.31C200.542 116.188 196.364 117.812 193.776 121.061C191.524 123.925 190.398 128.133 190.398 133.683C190.398 144.548 195.638 149.98 206.117 149.98H217.969V147.209C217.961 146.385 217.631 145.597 217.05 145.013C216.469 144.429 215.682 144.095 214.858 144.083H206.384C203.554 144.083 201.569 143.58 200.458 142.602C198.897 141.19 198.117 138.409 198.117 134.261C198.117 129.699 198.882 126.444 200.413 124.499C201.142 123.655 202.056 122.992 203.084 122.563C204.113 122.133 205.227 121.949 206.339 122.024" fill="#38393A"/>
<path d="M168.282 116.202C167.552 116.199 166.835 116.402 166.214 116.787C165.593 117.172 165.093 117.724 164.771 118.38L151.867 149.906H157.171C157.808 149.883 158.423 149.662 158.93 149.275C159.437 148.887 159.811 148.352 160 147.743L162.252 141.817H176.89L179.186 147.743C179.4 148.355 179.801 148.885 180.333 149.257C180.864 149.63 181.5 149.825 182.149 149.817H187.364L173.482 116.188L168.282 116.202ZM164.534 135.891L169.586 123.165L174.593 135.891H164.534Z" fill="#38393A"/>
<path d="M18.5591 116.183H6.97392C5.97712 116.187 5.02224 116.585 4.3174 117.289C3.61255 117.994 3.21484 118.949 3.21094 119.946V149.842H18.7369C29.2159 149.842 34.4554 144.449 34.4554 133.664C34.4554 127.738 33.1961 123.413 30.6628 120.538C28.1294 117.664 24.0109 116.094 18.5443 116.094M24.6776 142.123C23.5813 143.353 21.5072 143.961 18.4554 143.961H10.2776V122.049H18.4702C21.7443 122.049 23.9665 122.923 25.1665 124.672C26.3665 126.42 26.648 129.013 26.648 133.072C26.648 137.635 25.9764 140.682 24.6332 142.213" fill="#38393A"/>
<path d="M67.6772 116.035H63.7068V136.376C63.7068 139.65 63.0848 141.813 61.87 143.057C60.6552 144.302 58.9068 144.702 56.2104 144.702C53.06 144.702 50.9416 143.902 49.8552 142.302C48.8888 140.442 48.4676 138.347 48.6404 136.257V119.102C48.6524 118.291 48.3456 117.507 47.786 116.92C47.2264 116.333 46.4584 115.988 45.6476 115.961H41.6328V136.45C41.6328 141.171 42.566 144.534 44.4328 146.539C46.6552 148.909 50.5956 150.109 56.2848 150.109C61.9736 150.109 66.1068 148.865 68.27 146.391C69.944 144.465 70.7884 141.072 70.7884 136.376V119.131C70.7844 118.311 70.4572 117.526 69.8772 116.947C69.2972 116.367 68.512 116.039 67.692 116.035" fill="#38393A"/>
<path d="M143.899 132.115C145.407 130.375 146.238 128.151 146.239 125.848C146.231 123.285 145.207 120.829 143.39 119.021C141.573 117.213 139.113 116.2 136.55 116.203H122.713C122.179 116.198 121.649 116.297 121.153 116.497C120.657 116.697 120.206 116.992 119.825 117.366C119.443 117.741 119.14 118.187 118.931 118.679C118.723 119.171 118.613 119.699 118.609 120.233V149.863H138.699C140.793 149.878 142.834 149.21 144.514 147.96C146.195 146.71 147.421 144.947 148.009 142.937C148.597 140.927 148.514 138.781 147.772 136.822C147.03 134.864 145.67 133.201 143.899 132.085M125.647 122.263H134.639C135.691 122.271 136.697 122.694 137.438 123.441C138.179 124.187 138.595 125.196 138.595 126.248C138.593 126.765 138.489 127.276 138.289 127.753C138.089 128.229 137.797 128.662 137.429 129.025C137.062 129.388 136.626 129.676 136.147 129.87C135.669 130.065 135.156 130.163 134.639 130.159H128.343C127.613 130.132 126.923 129.821 126.419 129.293C125.916 128.764 125.638 128.059 125.647 127.329V122.263ZM136.787 143.937H125.647V138.322C125.629 137.944 125.687 137.567 125.817 137.212C125.948 136.857 126.148 136.532 126.406 136.256C126.665 135.979 126.975 135.758 127.321 135.604C127.666 135.45 128.039 135.367 128.417 135.359H136.55H136.787C137.332 135.376 137.868 135.502 138.364 135.729C138.859 135.956 139.305 136.28 139.673 136.682C140.041 137.083 140.326 137.555 140.51 138.068C140.693 138.581 140.773 139.126 140.743 139.67C140.779 140.761 140.384 141.821 139.644 142.623C138.903 143.424 137.877 143.902 136.787 143.952" fill="#38393A"/>
</g>
</svg>
