<svg width="400" height="300" viewBox="0 0 400 300" fill="none" xmlns="http://www.w3.org/2000/svg">
<rect width="400" height="300" fill="white"/>
<path d="M200 286.579C180.263 286.579 149.474 282.632 117.895 261.316C116.316 260.527 77.6318 236.842 61.0528 182.369C60.2634 180.79 48.4213 139.737 74.4739 112.895C76.0528 110.527 89.4738 95.5267 112.369 91.5793C113.948 71.053 132.895 13.4214 200 13.4214C267.106 13.4214 286.053 71.053 287.632 90.7897C309.737 95.5267 323.158 110.527 324.737 112.106C350.789 139.737 338.948 180 338.158 181.579C321.579 236.053 283.685 259.737 281.316 261.316C250.526 282.632 219.737 286.579 200 286.579Z" fill="white"/>
<path d="M200 288.948C179.474 288.948 147.895 284.211 116.316 263.684C106.053 257.369 73.6843 232.105 58.6843 183.158C55.5264 172.895 48.4212 136.579 72.8949 111.316C75.2633 108.948 88.6844 94.7371 110 90.0001C113.158 66.316 132.895 11.8423 200 11.8423C266.316 11.8423 286.842 67.1053 290 90.0001C310.526 94.7371 323.158 107.369 327.106 111.316C351.578 136.579 344.474 172.105 341.316 182.369C325.526 236.053 288.421 260.526 283.684 262.895C252.106 284.211 220.526 288.948 200 288.948ZM200 15.7897C134.474 15.7897 115.526 70.2634 113.947 91.579V93.1579H112.369C91.8422 97.1053 78.4212 111.316 76.0528 113.684C53.158 137.369 60.2633 171.316 62.6317 180.79C76.8422 228.947 108.421 252.632 117.895 258.948H118.684C149.474 279.474 179.474 284.211 200 284.211C219.737 284.211 250.526 280.263 281.316 258.948C285.263 256.579 321.579 232.895 337.368 180.79C339.737 170.526 346.842 136.579 323.947 112.895C320.79 108.948 308.158 96.316 287.632 92.3686H286.053V90.7897C283.684 70.2634 264.737 15.7897 200 15.7897Z" fill="white"/>
<path d="M310.527 260.526C304.211 260.526 299.474 265.263 299.474 271.579C299.474 277.895 304.211 282.632 310.527 282.632C316.842 282.632 321.579 277.895 321.579 271.579C321.579 266.053 316.053 260.526 310.527 260.526ZM310.527 281.842C305 281.842 301.053 277.895 301.053 272.368C301.053 267.632 305 262.895 310.527 262.895C315.263 262.895 320 266.842 320 272.368C319.211 277.895 315.263 281.842 310.527 281.842Z" fill="white"/>
<path d="M315.263 277.895V275.526C315.263 273.158 314.474 273.158 313.684 273.158C314.474 272.369 315.263 271.579 315.263 270C315.263 266.842 312.895 266.053 311.316 266.053H305V280.263H306.579V273.948H310.526C312.895 273.948 312.895 275.526 312.895 276.316C312.895 277.105 312.895 278.684 312.895 279.474H315.263C315.263 278.684 315.263 278.684 315.263 277.895ZM311.316 271.579H307.368V266.842H312.105C312.895 266.842 314.474 266.842 314.474 269.211C313.684 271.579 312.105 271.579 311.316 271.579Z" fill="white"/>
<path d="M309.737 260.526C303.421 260.526 298.684 265.263 298.684 271.579C298.684 277.895 303.421 282.632 309.737 282.632C316.053 282.632 320.79 277.895 320.79 271.579C321.579 266.053 316.053 260.526 309.737 260.526ZM309.737 281.842C304.211 281.842 300.263 277.895 300.263 272.368C300.263 266.842 304.211 262.895 309.737 262.895C315.263 262.895 319.211 266.842 319.211 272.368C319.211 277.895 315.263 281.842 309.737 281.842Z" fill="white"/>
<path d="M315.263 277.895V275.526C315.263 273.158 314.474 273.158 313.684 273.158C314.474 272.369 315.263 271.579 315.263 270C315.263 266.842 312.895 266.053 311.316 266.053H305V280.263H306.579V273.948H310.526C312.895 273.948 312.895 275.526 312.895 276.316C312.895 277.105 312.895 278.684 312.895 279.474H315.263C315.263 278.684 315.263 278.684 315.263 277.895ZM311.316 271.579H307.368V266.842H312.105C312.895 266.842 314.474 266.842 314.474 269.211C313.684 271.579 312.105 271.579 311.316 271.579Z" fill="white"/>
<path d="M320.789 116.842C320.789 116.842 306.579 100.263 282.895 97.1051C282.895 97.1051 278.158 18.9473 200 18.9473C121.842 18.9473 117.105 97.1051 117.105 97.1051C93.4211 100.263 79.2104 116.842 79.2104 116.842C54.7368 142.105 66.5788 180.789 66.5788 180.789C82.3682 233.684 120.263 256.579 120.263 256.579C151.053 277.105 181.053 281.052 200 281.052C218.947 281.052 248.947 276.316 279.737 256.579C279.737 256.579 317.632 232.895 333.421 180.789C333.421 180.789 346.053 142.895 320.789 116.842Z" fill="#DC2F34"/>
<path d="M311.316 123.158C311.316 123.158 299.474 109.737 272.632 106.579C272.632 106.579 271.053 29.2104 200.79 29.2104C130.526 29.2104 128.947 106.579 128.947 106.579C101.316 108.947 89.4737 123.158 89.4737 123.158C66.579 146.842 78.4211 179.21 78.4211 179.21C93.4211 228.158 128.158 248.684 128.158 248.684C156.579 267.632 183.421 271.579 200 271.579C216.579 271.579 243.421 267.632 271.842 248.684C271.842 248.684 306.579 228.158 321.579 179.21C321.579 179.21 334.211 146.053 311.316 123.158Z" fill="white"/>
<path d="M311.316 152.368C311.316 152.368 305.79 123.158 277.368 122.368H252.895C256.053 115.263 256.842 109.737 256.842 98.6842C256.842 67.8946 231.579 43.4209 200 43.4209C168.421 43.4209 143.158 67.1053 143.158 98.6842C143.158 108.947 144.737 116.053 147.895 122.368H121.842C92.6314 124.737 88.6843 152.368 88.6843 152.368C86.3158 172.895 93.421 186.316 93.421 186.316C93.421 186.316 111.579 236.842 170 252.632C170 252.632 182.631 256.579 200.79 256.579C218.947 256.579 231.579 252.632 231.579 252.632C289.211 236.842 307.368 186.316 307.368 186.316C307.368 186.316 313.684 172.895 311.316 152.368ZM305 185.526C305 185.526 286.842 235.263 230.79 251.053C230.79 251.053 218.158 255 200.79 255C183.421 255 170.79 251.053 170.79 251.053C113.947 235.263 96.5788 185.526 96.5788 185.526C96.5788 185.526 89.4736 172.895 91.8421 152.368C91.8421 152.368 96.5788 125.526 125 124.737H151.053C147.105 116.842 145.526 110.526 145.526 101.053C145.526 71.0527 169.211 46.579 200 46.579H200.79C232.368 46.579 255.263 71.0527 255.263 101.053C255.263 111.316 253.684 116.842 249.737 124.737H275.79C304.211 125.526 308.947 152.368 308.947 152.368C312.105 172.895 305 185.526 305 185.526Z" fill="#DC2F34"/>
<path d="M143.947 156.315C137.632 156.315 132.105 163.421 132.105 172.105C132.105 180.789 137.632 187.894 143.947 187.894C150.263 187.894 155.789 180.789 155.789 172.105C156.579 162.631 151.053 156.315 143.947 156.315Z" fill="#DC2F34"/>
<path d="M299.473 140.527C290 127.895 274.21 127.895 274.21 127.895H236.316L235.526 128.684C228.421 139.737 216.579 147.632 200 147.632C188.158 147.632 172.368 139.737 164.473 128.684V127.895H125.789C125.789 127.895 110 127.895 100.526 140.527C100.526 140.527 87.8945 153.158 98.9471 183.158C98.9471 183.158 115.526 230.527 170.789 245.527C170.789 245.527 182.632 249.474 200 249.474C216.579 249.474 229.21 245.527 229.21 245.527C284.473 229.737 301.053 183.158 301.053 183.158C312.105 153.948 299.473 140.527 299.473 140.527ZM203.158 151.579H227.632V157.895H218.158V175.264H227.632V181.579H207.895C205.526 181.579 203.158 179.211 203.158 176.842V151.579ZM198.421 151.579V158.684H190.526V176.053H198.421V183.158H180.263C177.895 183.158 175.526 180.79 175.526 178.421V152.369L198.421 151.579ZM152.632 192.632V205.264H170.789V212.369H118.684V205.264H136.053V192.632C125.789 189.474 117.105 181.579 117.105 172.105C117.105 160.264 128.947 150.79 143.947 150.79C158.947 150.79 170.789 160.264 170.789 172.105C171.579 181.579 163.684 189.474 152.632 192.632ZM227.632 194.211H208.684V209.211C208.684 212.369 205.526 215.527 200.789 215.527C196.053 215.527 192.895 212.369 192.895 209.211V208.421V194.211H175.526V187.105H228.421L227.632 194.211ZM261.579 196.579C261.579 213.158 236.316 212.369 236.316 212.369C233.947 212.369 233.158 210.79 233.158 208.421C233.158 206.053 234.737 204.474 237.105 204.474C247.368 202.105 247.368 195.79 247.368 195.79V159.474H233.158V152.369H262.368V196.579H261.579ZM282.895 207.632C282.895 210.79 279.737 213.948 275.789 213.948C271.053 213.948 267.895 210.79 267.895 207.632V150H282.895V207.632Z" fill="#DC2F34"/>
<path d="M175.526 85.2635C175.526 85.2635 182.632 81.3161 185.789 84.4739C185.789 84.4739 188.158 86.0528 187.369 82.1054C187.369 82.1054 183.421 74.2106 174.737 82.895C174.737 83.6843 170 88.4213 175.526 85.2635Z" fill="#DC2F34"/>
<path d="M215.79 75.7894L209.474 78.9475C205.526 81.316 207.895 83.6842 207.895 83.6842C211.053 86.8423 213.421 84.4738 213.421 84.4738C217.369 79.7368 222.106 82.1053 222.106 82.1053C221.316 72.6316 215.79 75.7894 215.79 75.7894Z" fill="#DC2F34"/>
<path d="M205.526 102.632C208.684 102.632 211.842 100.263 211.053 96.316C211.053 93.1582 208.684 90.0001 204.737 90.7897C201.579 90.7897 198.421 93.1582 198.421 97.1056C199.21 100.263 202.368 103.421 205.526 102.632Z" fill="#DC2F34"/>
<path d="M188.158 95.5262C188.158 95.5262 183.421 96.3158 188.947 100.263C188.947 100.263 194.474 103.421 194.474 100.263C194.474 100.263 190.527 101.053 193.684 96.3158C193.684 96.3158 193.684 90.7895 189.737 89.9999C189.737 89.2106 192.895 95.5262 188.158 95.5262Z" fill="#DC2F34"/>
<path d="M183.421 94.7368C183.421 94.7368 188.158 93.1579 182.632 93.1579C182.632 93.1579 177.105 93.9472 175.526 89.9998C175.526 89.9998 170.79 86.0527 173.947 90.7894C173.158 90.7894 175.526 97.1053 183.421 94.7368Z" fill="#DC2F34"/>
<path d="M216.579 112.105L212.632 114.474C212.632 114.474 209.474 116.053 210.263 112.105C210.263 112.105 209.474 102.631 204.737 106.579C204.737 106.579 200.79 111.316 197.632 112.105C197.632 112.105 192.106 115.263 186.579 111.316C186.579 111.316 179.474 105 176.316 105C176.316 105 172.369 105 176.316 106.579C176.316 106.579 178.684 107.368 181.842 108.947C181.842 108.947 186.579 114.474 188.947 116.053C188.947 116.053 192.895 118.421 200 119.21C200 119.21 210.263 120.79 217.369 113.684C218.158 112.895 219.737 110.526 216.579 112.105ZM203.158 114.474L200 113.684C200 113.684 203.947 112.105 205.526 110.526C206.316 111.316 205.526 114.474 203.158 114.474Z" fill="#DC2F34"/>
<path d="M243.421 101.842C243.421 101.053 243.421 101.053 243.421 100.263C243.421 99.4737 243.421 99.4737 243.421 98.6844C244.21 93.1581 243.421 80.5263 230.789 65.5263C230.789 65.5263 215.789 45 190.526 56.8422C190.526 56.8422 180.263 49.737 172.368 57.6315C172.368 57.6315 165.263 63.1581 169.21 73.4211C169.21 73.4211 167.631 75.7896 165.263 78.9474C160.526 86.0526 158.158 93.9474 158.158 101.053C158.158 119.211 169.21 134.211 185 141.316C187.368 142.105 189.737 143.684 192.105 144.474C192.105 144.474 212.631 151.579 230.789 133.421C233.947 130.263 236.316 127.105 238.684 123.158C240.263 120 251.316 110.526 243.421 101.842ZM232.368 113.684C230 123.158 222.895 128.684 219.737 131.053C218.947 131.842 218.158 131.842 218.158 131.842C212.631 135 207.105 136.579 200.789 136.579C181.842 136.579 166.053 121.579 165.263 102.632C164.474 89.2107 175.526 78.1578 175.526 78.1578C185.789 79.737 191.316 75.7896 191.316 75.7896C206.316 84.4737 207.895 74.2107 207.895 74.2107C200.789 75 203.947 71.0526 203.947 71.0526C205.526 68.6844 210.263 69.4737 210.263 69.4737C233.158 73.4211 226.053 88.4211 226.053 88.4211C233.158 92.3685 230 95.5263 230 95.5263C225.263 93.9474 224.474 96.3159 225.263 97.8948C226.053 99.4737 227.631 101.053 229.21 102.632C230 103.421 231.579 105 231.579 106.579C231.579 107.369 232.368 107.369 232.368 108.158V108.947C232.368 109.737 232.368 110.526 232.368 111.316C232.368 111.316 233.158 111.316 233.158 110.526C234.737 107.369 239.474 104.211 239.474 108.947C237.895 115.263 232.368 113.684 232.368 113.684Z" fill="#DC2F34"/>
<path d="M230 106.579C230 107.368 230.79 107.368 230.79 108.158C230.79 107.368 230.79 107.368 230 106.579Z" fill="white"/>
</svg>
