<svg width="42" height="42" viewBox="0 0 42 42" fill="none" xmlns="http://www.w3.org/2000/svg">
<path d="M0 21C0 32.5979 9.40201 42 21 42C32.5979 42 42 32.5979 42 21C42 9.40201 32.5979 0 21 0C9.40201 0 0 9.40201 0 21Z" fill="black"/>
<path d="M21.2124 13.7307C22.0066 13.7307 23.0022 13.1773 23.5951 12.4394C24.132 11.7707 24.5235 10.8367 24.5235 9.90283C24.5235 9.77599 24.5123 9.64917 24.4899 9.54541C23.6062 9.58 22.5436 10.1565 21.906 10.929C21.4027 11.517 20.944 12.4394 20.944 13.3848C20.944 13.5232 20.9664 13.6615 20.9775 13.7077C21.0335 13.7192 21.1229 13.7307 21.2124 13.7307ZM18.4159 27.6817C19.501 27.6817 19.982 26.9322 21.3355 26.9322C22.7114 26.9322 23.0134 27.6586 24.2215 27.6586C25.4072 27.6586 26.2014 26.5288 26.9509 25.4219C27.7898 24.1537 28.1365 22.9084 28.159 22.8509C28.0807 22.8278 25.8099 21.8708 25.8099 19.1843C25.8099 16.8553 27.5998 15.8061 27.7004 15.7254C26.5147 13.9728 24.7137 13.9267 24.2215 13.9267C22.8903 13.9267 21.8052 14.7569 21.1229 14.7569C20.3847 14.7569 19.4115 13.9728 18.2593 13.9728C16.0668 13.9728 13.8408 15.8407 13.8408 19.3688C13.8408 21.5594 14.6686 23.8769 15.6865 25.3757C16.559 26.6441 17.3197 27.6817 18.4159 27.6817Z" fill="white"/>
</svg>
