<svg width="100" height="100" viewBox="0 0 100 100" fill="none" xmlns="http://www.w3.org/2000/svg">
<rect width="100" height="100" fill="white"/>
<g clip-path="url(#clip0_232_38)">
<rect width="100" height="18.5185" transform="translate(0 41)" fill="white"/>
<path d="M1.56648 53.7118C1.56491 53.534 1.59891 53.3577 1.66648 53.1933C1.73213 53.0359 1.82916 52.8935 1.95166 52.7748C2.07516 52.6566 2.22131 52.5646 2.38129 52.5044C2.55589 52.4362 2.742 52.4022 2.92944 52.4044C3.11684 52.4028 3.30284 52.4367 3.47759 52.5044C3.63713 52.5655 3.78311 52.6574 3.90722 52.7748C4.02972 52.8935 4.12676 53.0359 4.1924 53.1933C4.26077 53.3583 4.29596 53.5351 4.29596 53.7137C4.29596 53.8922 4.26077 54.0691 4.1924 54.234C4.12669 54.3903 4.02963 54.5315 3.90722 54.6488C3.78311 54.7662 3.63713 54.8581 3.47759 54.9192C3.30211 54.9838 3.11645 55.0165 2.92944 55.0155C2.74238 55.0171 2.55661 54.9845 2.38129 54.9192C2.22131 54.859 2.07516 54.767 1.95166 54.6488C1.82926 54.5315 1.7322 54.3903 1.66648 54.234C1.59862 54.0684 1.56461 53.8908 1.56648 53.7118ZM3.87018 57.4637L3.57018 57.1266V57.4637H1.7887V55.5192H2.34796V56.9674H3.57018V57.0377C3.82085 56.9479 4.04852 56.8037 4.23685 56.6155C4.41796 56.4321 4.54596 56.2029 4.60722 55.9525H3.68129V55.4674H5.97018V55.9525H5.12203C5.12203 56.0081 5.09611 56.06 5.085 56.1081C5.07411 56.157 5.06051 56.2052 5.04426 56.2525C5.1865 56.4323 5.35956 56.5853 5.55537 56.7044C5.75951 56.8254 5.97702 56.9224 6.20352 56.9933L5.92944 57.4377C5.71866 57.3628 5.51632 57.266 5.32574 57.1488C5.13979 57.0281 4.9683 56.8864 4.81463 56.7266C4.69684 56.8949 4.55595 57.0458 4.39611 57.1748C4.23664 57.2974 4.05926 57.3949 3.87018 57.4637ZM2.12203 53.7118C2.11848 53.9234 2.19524 54.1286 2.33685 54.2859C2.41342 54.3646 2.50587 54.4261 2.60804 54.4663C2.71021 54.5065 2.81977 54.5246 2.92944 54.5192C3.03909 54.5243 3.14858 54.5062 3.25072 54.466C3.35285 54.4258 3.44532 54.3644 3.52203 54.2859C3.66286 54.1278 3.74068 53.9235 3.74068 53.7118C3.74068 53.5001 3.66286 53.2958 3.52203 53.1377C3.44608 53.058 3.35384 52.9955 3.25158 52.9546C3.14932 52.9137 3.03945 52.8953 2.92944 52.9007C2.81941 52.8951 2.70946 52.9134 2.60717 52.9543C2.50487 52.9952 2.41265 53.0578 2.33685 53.1377C2.19524 53.295 2.11848 53.5002 2.12203 53.7118ZM5.35166 52.4044H5.92574V53.4562H6.64796V53.9637H5.92574V55.1748H5.35166V52.4044Z" fill="#38393A"/>
<path d="M11.6445 54.9625H16.5482V55.4662H11.6445V54.9625ZM11.9223 54.281V52.4551H12.4816V53.7921H16.326V54.281H11.9223ZM16.326 56.9662V57.4625H11.9223V55.9106H12.4816V56.9662H16.326Z" fill="#38393A"/>
<path d="M26.7367 56.793V57.2967H21.8516V56.793H24.0256V55.4967H24.5849V56.793H26.7367ZM26.459 52.5078V55.2115H22.1145V52.5078H26.459ZM22.6738 54.7041H25.9034V53.0004H22.6738V54.7041Z" fill="#38393A"/>
<path d="M32.0293 55.0745H36.9293V55.5708H32.0293V55.0745ZM36.6663 54.5041H32.3071V52.5078H36.6663V53.0078H32.8663V54.0078H36.6663V54.5041ZM36.696 56.9671V57.4634H32.3071V55.9634H32.8663V56.9671H36.696Z" fill="#38393A"/>
<path d="M48.6996 52.5072H51.1107V52.8776C51.1143 53.1918 51.0525 53.5033 50.9292 53.7924C50.8091 54.0677 50.6396 54.3187 50.4292 54.5331C50.2128 54.7528 49.9628 54.9366 49.6885 55.0776C49.3951 55.2245 49.082 55.328 48.7589 55.385L48.4922 54.9331C48.7758 54.8922 49.0525 54.8124 49.3144 54.6961C49.5513 54.5918 49.7701 54.4505 49.9626 54.2776C50.1343 54.1144 50.2727 53.9195 50.37 53.7035C50.4752 53.4869 50.5357 53.2514 50.5477 53.0109H48.6959L48.6996 52.5072ZM51.1589 55.8405C51.2924 55.9867 51.4401 56.1195 51.5996 56.2368C51.7636 56.3612 51.9369 56.4726 52.1181 56.5702C52.2987 56.6686 52.4855 56.7552 52.6774 56.8294C52.8618 56.8981 53.0513 56.9525 53.244 56.9924L52.9848 57.4479C52.7899 57.402 52.5991 57.34 52.4144 57.2627C52.2215 57.1839 52.0336 57.0936 51.8514 56.9924C51.6687 56.8837 51.4947 56.7689 51.3292 56.6479C51.1726 56.535 51.0241 56.4112 50.8848 56.2776C50.6406 56.5885 50.3403 56.8511 49.9996 57.0516C49.6748 57.25 49.3174 57.3892 48.944 57.4627L48.6663 57.0183C48.9031 56.9739 49.1341 56.9031 49.3552 56.8072C49.5754 56.7112 49.7821 56.5867 49.97 56.4368C50.1563 56.2894 50.323 56.1189 50.4663 55.9294C50.6116 55.7329 50.7264 55.5157 50.807 55.285L51.3144 55.459C51.2922 55.5294 51.2663 55.5961 51.2403 55.659C51.2144 55.722 51.1922 55.7924 51.1589 55.8553V55.8405ZM53.044 52.3887V55.6664H52.4848V54.1257H51.1403V53.622H52.4848V52.4035L53.044 52.3887Z" fill="#38393A"/>
<path d="M80.7402 41.8675C80.2773 41.8675 80.0513 42.3231 79.9995 42.5009L77.1995 50.1786H78.7106C78.9156 50.1637 79.1113 50.087 79.2719 49.9588C79.4325 49.8305 79.5506 49.6567 79.6106 49.4601L79.6365 49.386L81.281 44.4823L82.5921 48.3601H81.1106L80.7884 49.3712C80.7884 49.3712 80.5402 50.1342 81.1958 50.1342H83.518L84.7439 48.3157L82.4217 41.8675H80.7402ZM74.0032 41.8675C73.8285 41.8711 73.6589 41.9266 73.5158 42.0268C73.3727 42.1271 73.2626 42.2676 73.1995 42.4305L73.1402 42.5786L71.7217 46.2823L70.1217 41.8379H68.6588C68.4848 41.8418 68.3183 41.9096 68.1912 42.0285C68.0641 42.1474 67.9853 42.309 67.9699 42.4823V42.5712L66.7402 50.1638H68.1476C68.336 50.1642 68.5175 50.0928 68.6551 49.9641C68.7927 49.8355 68.8761 49.6592 68.8884 49.4712V49.386L69.4476 45.3823L71.2662 50.1638H72.0773L73.981 45.3823L74.4662 49.386V49.4564C74.4747 49.647 74.5566 49.827 74.6946 49.9588C74.8326 50.0906 75.0161 50.164 75.2069 50.1638H76.6143L75.4328 41.8564L74.0032 41.8675ZM90.0773 48.3786H88.3588V41.8564H86.9847C86.8928 41.851 86.8008 41.8652 86.7148 41.8979C86.6288 41.9306 86.5507 41.9811 86.4856 42.0462C86.4205 42.1113 86.37 42.1894 86.3373 42.2754C86.3045 42.3615 86.2904 42.4534 86.2958 42.5453V50.1638H90.7958V49.0527C90.7972 48.9579 90.7787 48.8638 90.7414 48.7766C90.7042 48.6893 90.649 48.6109 90.5796 48.5463C90.5101 48.4817 90.4278 48.4324 90.3381 48.4016C90.2484 48.3708 90.1532 48.3592 90.0588 48.3675L90.0773 48.3786ZM95.6328 48.3786H93.9106V41.8564H92.518C92.4264 41.8557 92.3357 41.8739 92.2515 41.9099C92.1673 41.946 92.0915 41.9991 92.0289 42.0659C91.9663 42.1327 91.9182 42.2118 91.8876 42.2981C91.857 42.3845 91.8447 42.4762 91.8513 42.5675V50.1638H96.3513V49.0194C96.3493 48.927 96.3281 48.8361 96.2892 48.7523C96.2503 48.6685 96.1945 48.5936 96.1253 48.5324C96.0561 48.4712 95.9749 48.4249 95.887 48.3966C95.7991 48.3682 95.7062 48.3583 95.6143 48.3675L95.6328 48.3786Z" fill="#20A899"/>
<path d="M57.6193 50.0892C58.4711 50.0892 58.7748 49.667 59.1008 49.2336L60.6897 47.0929L62.66 49.7485C62.7429 49.8486 62.8455 49.9305 62.9615 49.9891C63.0775 50.0478 63.2043 50.0818 63.3341 50.0892H64.8934L61.6785 45.7596L64.5193 41.9374H62.9897C62.8599 41.9447 62.7331 41.9788 62.6171 42.0374C62.5011 42.096 62.3984 42.178 62.3156 42.2781L57.9341 48.1596V41.9374H57.0378C56.9337 41.9303 56.8292 41.9439 56.7303 41.9774C56.6314 42.0108 56.5402 42.0635 56.4617 42.1323C56.3832 42.2011 56.3191 42.2848 56.2731 42.3784C56.227 42.4721 56.1999 42.5739 56.1934 42.6781V49.3596C56.2076 49.5696 56.3045 49.7654 56.4627 49.9042C56.621 50.043 56.8277 50.1135 57.0378 50.1003L57.6193 50.0892Z" fill="#38393A"/>
<path d="M26.5935 42.4806C25.9169 41.9102 24.9293 41.625 23.6305 41.625C20.8379 41.625 19.4428 43.0793 19.4453 45.988C19.4453 47.4694 19.7885 48.5806 20.4749 49.3213C21.1614 50.062 22.2206 50.4262 23.6527 50.4139C26.4552 50.4139 27.8577 48.9522 27.8601 46.0287C27.8601 44.3818 27.4354 43.2052 26.5861 42.4991M23.6231 48.9694C22.107 48.9694 21.349 47.9818 21.349 46.0065C21.349 44.0682 22.107 43.0991 23.6231 43.0991C25.1391 43.0991 25.9021 44.0867 25.912 46.062C25.912 48.0151 25.149 48.9904 23.6231 48.988" fill="#38393A"/>
<path d="M51.607 43.245H53.7255C53.9312 43.2431 54.1279 43.1605 54.2734 43.0151C54.4188 42.8696 54.5014 42.6729 54.5033 42.4672V41.7969H51.5774C50.1354 41.7969 49.091 42.203 48.4441 43.0154C47.8811 43.7314 47.5996 44.7833 47.5996 46.1709C47.5996 48.887 48.9095 50.245 51.5292 50.245H54.4922V49.5524C54.4903 49.3464 54.4078 49.1493 54.2625 49.0033C54.1172 48.8572 53.9204 48.7738 53.7144 48.7709H51.5959C50.8885 48.7709 50.3922 48.645 50.1144 48.4006C49.7243 48.0475 49.5292 47.3524 49.5292 46.3154C49.5292 45.1747 49.7206 44.3611 50.1033 43.8747C50.2854 43.6637 50.514 43.498 50.7711 43.3907C51.0282 43.2833 51.3068 43.2373 51.5848 43.2561" fill="#38393A"/>
<path d="M42.0705 41.8006C41.8879 41.7999 41.7087 41.8506 41.5535 41.9469C41.3983 42.0431 41.2733 42.1811 41.1927 42.345L37.9668 50.2265H39.2927C39.4521 50.2207 39.6058 50.1655 39.7325 50.0687C39.8592 49.9718 39.9527 49.838 40.0001 49.6858L40.5631 48.2043H44.2224L44.7964 49.6858C44.85 49.8389 44.9503 49.9714 45.0832 50.0644C45.2161 50.1575 45.3749 50.2064 45.5372 50.2043H46.8409L43.3705 41.7969L42.0705 41.8006ZM41.1335 46.7228L42.3964 43.5413L43.6483 46.7228H41.1335Z" fill="#38393A"/>
<path d="M4.63977 41.7957H1.74348C1.49428 41.7966 1.25556 41.8961 1.07935 42.0723C0.903136 42.2485 0.80371 42.4872 0.802734 42.7364V50.2105H4.68422C7.30397 50.2105 8.61385 48.8623 8.61385 46.166C8.61385 44.6845 8.29903 43.6031 7.6657 42.8845C7.03236 42.166 6.00273 41.7734 4.63607 41.7734M6.1694 48.2808C5.89533 48.5883 5.37681 48.7401 4.61385 48.7401H2.5694V43.2623H4.61755C5.43607 43.2623 5.99162 43.4808 6.29162 43.9179C6.59162 44.3549 6.66199 45.0031 6.66199 46.0179C6.66199 47.1586 6.49409 47.9204 6.15829 48.3031" fill="#38393A"/>
<path d="M16.9193 41.7588H15.9267V46.8439C15.9267 47.6625 15.7712 48.2032 15.4675 48.5143C15.1638 48.8254 14.7267 48.9254 14.0526 48.9254C13.265 48.9254 12.7354 48.7254 12.4638 48.3254C12.2222 47.8604 12.1169 47.3366 12.1601 46.8143V42.5254C12.1631 42.3226 12.0864 42.1267 11.9465 41.9799C11.8066 41.8331 11.6146 41.747 11.4119 41.7402H10.4082V46.8625C10.4082 48.0427 10.6415 48.8834 11.1082 49.3847C11.6638 49.9773 12.6489 50.2773 14.0712 50.2773C15.4934 50.2773 16.5267 49.9662 17.0675 49.3476C17.486 48.8662 17.6971 48.018 17.6971 46.8439V42.5328C17.6961 42.3278 17.6143 42.1315 17.4693 41.9866C17.3243 41.8416 17.128 41.7597 16.923 41.7588" fill="#38393A"/>
<path d="M35.9746 45.7786C36.3517 45.3438 36.5595 44.7876 36.5598 44.212C36.5578 43.5712 36.3016 42.9573 35.8475 42.5053C35.3933 42.0532 34.7783 41.7999 34.1375 41.8008H30.6783C30.5447 41.7994 30.4121 41.8243 30.2882 41.8742C30.1643 41.9241 30.0514 41.9979 29.9561 42.0915C29.8608 42.1851 29.7849 42.2966 29.7328 42.4196C29.6806 42.5426 29.6533 42.6747 29.6523 42.8082V50.2157H34.6746C35.1981 50.2194 35.7085 50.0524 36.1285 49.7399C36.5486 49.4275 36.8553 48.9866 37.0023 48.4842C37.1492 47.9817 37.1284 47.4451 36.943 46.9555C36.7575 46.4659 36.4175 46.0502 35.9746 45.7712M31.4116 43.3157H33.6598C33.9227 43.3176 34.1742 43.4234 34.3595 43.6101C34.5447 43.7967 34.6486 44.049 34.6486 44.312C34.6482 44.4412 34.6222 44.569 34.5722 44.6881C34.5222 44.8073 34.4491 44.9154 34.3572 45.0062C34.2654 45.097 34.1565 45.1689 34.0368 45.2175C33.9171 45.2662 33.789 45.2907 33.6598 45.2897H32.0857C31.9033 45.283 31.7307 45.2052 31.6048 45.0731C31.4789 44.941 31.4095 44.7648 31.4116 44.5823V43.3157ZM34.1968 48.7342H31.4116V47.3305C31.4071 47.236 31.4216 47.1417 31.4542 47.0529C31.4869 46.9642 31.5369 46.8829 31.6015 46.8139C31.6661 46.7448 31.7438 46.6894 31.8302 46.6509C31.9165 46.6124 32.0097 46.5916 32.1042 46.5897H34.1375H34.1968C34.333 46.594 34.467 46.6254 34.5909 46.6822C34.7148 46.739 34.8261 46.8199 34.9182 46.9204C35.0103 47.0208 35.0815 47.1386 35.1274 47.2669C35.1733 47.3952 35.1932 47.5314 35.1857 47.6675C35.1947 47.9401 35.096 48.2053 34.9109 48.4057C34.7258 48.606 34.4693 48.7254 34.1968 48.7379" fill="#38393A"/>
</g>
<defs>
<clipPath id="clip0_232_38">
<rect width="100" height="18.5185" fill="white" transform="translate(0 41)"/>
</clipPath>
</defs>
</svg>
