<svg width="50" height="50" viewBox="0 0 50 50" fill="none" xmlns="http://www.w3.org/2000/svg">
<rect x="1" y="1" width="48" height="48" rx="24" fill="white" stroke="#D9DBE1"/>
<path fill-rule="evenodd" clip-rule="evenodd" d="M35.56 25.25C35.56 24.47 35.49 23.72 35.36 23H25V27.255H30.92C30.665 28.63 29.89 29.795 28.725 30.575V33.335H32.28C34.36 31.42 35.56 28.6 35.56 25.25Z" fill="#4285F4"/>
<path fill-rule="evenodd" clip-rule="evenodd" d="M25.0019 35.9998C27.9719 35.9998 30.4619 35.0148 32.2819 33.3348L28.7269 30.5748C27.7419 31.2348 26.4819 31.6248 25.0019 31.6248C22.1369 31.6248 19.7119 29.6898 18.8469 27.0898H15.1719V29.9398C16.9819 33.5348 20.7019 35.9998 25.0019 35.9998Z" fill="#34A853"/>
<path fill-rule="evenodd" clip-rule="evenodd" d="M18.845 27.0886C18.625 26.4286 18.5 25.7236 18.5 24.9986C18.5 24.2736 18.625 23.5686 18.845 22.9086V20.0586H15.17C14.425 21.5436 14 23.2236 14 24.9986C14 26.7736 14.425 28.4536 15.17 29.9386L18.845 27.0886Z" fill="#FBBC05"/>
<path fill-rule="evenodd" clip-rule="evenodd" d="M25.0019 18.375C26.6169 18.375 28.0669 18.93 29.2069 20.02L32.3619 16.865C30.4569 15.09 27.9669 14 25.0019 14C20.7019 14 16.9819 16.465 15.1719 20.06L18.8469 22.91C19.7119 20.31 22.1369 18.375 25.0019 18.375Z" fill="#EA4335"/>
</svg>
