<svg width="20" height="20" viewBox="0 0 20 20" fill="none" xmlns="http://www.w3.org/2000/svg">
<g id="White-Logo-Square-">
<path id="Rectangle" d="M0 10C0 15.5228 4.47715 20 10 20C15.5228 20 20 15.5228 20 10C20 4.47715 15.5228 0 10 0C4.47715 0 0 4.47715 0 10Z" fill="black"/>
<path id="&#239;&#163;&#191;" d="M10.1011 6.53846C10.4793 6.53846 10.9534 6.27492 11.2357 5.92354C11.4914 5.6051 11.6778 5.16038 11.6778 4.71566C11.6778 4.65526 11.6725 4.59487 11.6618 4.54546C11.241 4.56193 10.735 4.83645 10.4314 5.2043C10.1917 5.48431 9.97328 5.92354 9.97328 6.37375C9.97328 6.43964 9.98393 6.50552 9.98926 6.52748C10.0159 6.53297 10.0585 6.53846 10.1011 6.53846ZM8.76944 13.1818C9.28613 13.1818 9.51518 12.8249 10.1597 12.8249C10.8149 12.8249 10.9587 13.1708 11.534 13.1708C12.0986 13.1708 12.4768 12.6328 12.8337 12.1057C13.2332 11.5018 13.3983 10.9088 13.409 10.8814C13.3717 10.8704 12.2904 10.4147 12.2904 9.13541C12.2904 8.02636 13.1427 7.52673 13.1906 7.4883C12.626 6.65376 11.7684 6.6318 11.534 6.6318C10.9001 6.6318 10.3834 7.02711 10.0585 7.02711C9.70694 7.02711 9.24352 6.65376 8.69487 6.65376C7.65083 6.65376 6.59082 7.5432 6.59082 9.22326C6.59082 10.2664 6.985 11.37 7.46973 12.0837C7.88521 12.6877 8.24743 13.1818 8.76944 13.1818Z" fill="white"/>
</g>
</svg>
