<svg id="icon-lnb-flightschedule-01" xmlns="http://www.w3.org/2000/svg" width="16" height="16" viewBox="0 0 16 16">
  <path id="패스_81236" data-name="패스 81236" d="M-11980.744,18829.016a1.261,1.261,0,0,1-1.258-1.258v-7.187h11.767v7.188a1.264,1.264,0,0,1-1.257,1.258Zm1.124-3.871-.421.146s-.052.02-.057.053a.057.057,0,0,0,.024.051l1.067,1.055a.925.925,0,0,0,.724.354c.032,0,.065,0,.1-.008h.028l5.17-1.637c.359-.137.954-.656.822-1.01-.1-.246-.516-.336-.846-.336a1.4,1.4,0,0,0-.464.07l-1.767.689c-.01,0-.146-.084-.359-.207-.761-.439-2.542-1.471-2.642-1.541a.229.229,0,0,0-.133-.043.171.171,0,0,0-.085.02l-.378.156a.115.115,0,0,0-.062.07.083.083,0,0,0,.033.076c.09.084,2.292,1.951,2.311,1.965l-1.861.709s-.964-.59-1.03-.627a.4.4,0,0,0-.1-.02A.212.212,0,0,0-11979.62,18825.145Zm-2.382-5.307v-1.039a1.256,1.256,0,0,1,1.258-1.252h.944v-1.2a.34.34,0,0,1,.346-.344h.581a.344.344,0,0,1,.35.344v1.2h4.806v-1.2a.343.343,0,0,1,.345-.344h.586a.343.343,0,0,1,.345.344v1.2h.945a1.256,1.256,0,0,1,1.257,1.252v1.039Z" transform="translate(11986.235 -18814.783)" fill="#192547"/>
  <rect id="사각형_23360" data-name="사각형 23360" width="16" height="16" fill="none"/>
</svg>
