<svg width="42" height="71" viewBox="0 0 42 71" fill="none" xmlns="http://www.w3.org/2000/svg">
<g clip-path="url(#clip0_173_3)">
<path d="M21 42C32.598 42 42 32.598 42 21C42 9.40202 32.598 0 21 0C9.40202 0 0 9.40202 0 21C0 32.598 9.40202 42 21 42Z" fill="#FFE500"/>
<path fill-rule="evenodd" clip-rule="evenodd" d="M11 19.775C11 22.538 12.897 24.957 15.746 26.341L14.782 29.804C14.746 29.909 14.775 30.024 14.855 30.099C14.911 30.153 14.983 30.182 15.064 30.182C15.125 30.182 15.186 30.157 15.241 30.116L19.386 27.422C19.986 27.505 20.601 27.552 21.226 27.552C26.874 27.552 31.455 24.071 31.455 19.775C31.455 15.48 26.874 12 21.227 12C15.579 12 11 15.48 11 19.775Z" fill="#391F1F"/>
</g>
<path d="M16.376 64.292H14.936V69.248H13.748V59H14.936V63.152H16.376V64.292ZM6.032 59.372H11.708V62.24C11.708 63.552 11.468 64.688 10.988 65.648C10.508 66.6 9.84 67.332 8.984 67.844C8.128 68.348 7.144 68.604 6.032 68.612V67.496C7.128 67.488 8.048 67.204 8.792 66.644C9.536 66.076 10.04 65.252 10.304 64.172H6.032V63.092H10.484C10.508 62.836 10.52 62.576 10.52 62.312V60.452H6.032V59.372ZM27.919 64.292H26.479V69.248H25.291V59H26.479V63.152H27.919V64.292ZM17.575 59.372H23.251V62.24C23.251 63.552 23.011 64.688 22.531 65.648C22.051 66.6 21.383 67.332 20.527 67.844C19.671 68.348 18.687 68.604 17.575 68.612V67.496C18.671 67.488 19.591 67.204 20.335 66.644C21.079 66.076 21.583 65.252 21.847 64.172H17.575V63.092H22.027C22.051 62.836 22.063 62.576 22.063 62.312V60.452H17.575V59.372ZM38.9819 67.64V68.756H28.7459V67.64H33.2459V65.456C32.4379 65.4 31.7299 65.236 31.1219 64.964C30.5219 64.692 30.0579 64.332 29.7299 63.884C29.4019 63.428 29.2379 62.912 29.2379 62.336C29.2379 61.712 29.4299 61.164 29.8139 60.692C30.1979 60.212 30.7379 59.84 31.4339 59.576C32.1299 59.312 32.9379 59.18 33.8579 59.18C34.7779 59.18 35.5859 59.312 36.2819 59.576C36.9779 59.84 37.5179 60.212 37.9019 60.692C38.2859 61.164 38.4779 61.712 38.4779 62.336C38.4779 62.912 38.3139 63.428 37.9859 63.884C37.6579 64.332 37.1899 64.692 36.5819 64.964C35.9739 65.236 35.2659 65.4 34.4579 65.456V67.64H38.9819ZM30.4979 62.336C30.4979 62.744 30.6379 63.104 30.9179 63.416C31.1979 63.728 31.5899 63.972 32.0939 64.148C32.6059 64.316 33.1939 64.4 33.8579 64.4C34.5299 64.4 35.1179 64.316 35.6219 64.148C36.1339 63.972 36.5299 63.728 36.8099 63.416C37.0899 63.104 37.2299 62.744 37.2299 62.336C37.2299 61.928 37.0899 61.568 36.8099 61.256C36.5299 60.936 36.1339 60.692 35.6219 60.524C35.1179 60.348 34.5299 60.26 33.8579 60.26C33.1939 60.26 32.6059 60.348 32.0939 60.524C31.5899 60.692 31.1979 60.936 30.9179 61.256C30.6379 61.568 30.4979 61.928 30.4979 62.336Z" fill="#192547"/>
<defs>
<clipPath id="clip0_173_3">
<rect width="42" height="42" fill="white"/>
</clipPath>
</defs>
</svg>
