<svg width="66" height="23" viewBox="0 0 66 23" fill="none" xmlns="http://www.w3.org/2000/svg">
<rect width="66" height="23" rx="2" fill="#89A3AB"/>
<path d="M16.6 14.764H26.44V15.592H16.6V14.764ZM21.004 12.448H21.988V15.112H21.004V12.448ZM17.8 6.88H25.216V10.168H18.808V12.34H17.824V9.376H24.232V7.696H17.8V6.88ZM17.824 11.92H25.468V12.736H17.824V11.92ZM28.7071 7.228H35.6911V8.044H28.7071V7.228ZM27.6391 14.524H37.4431V15.352H27.6391V14.524ZM35.1511 7.228H36.1351V8.32C36.1351 8.776 36.1271 9.264 36.1111 9.784C36.1031 10.296 36.0711 10.864 36.0151 11.488C35.9591 12.112 35.8631 12.816 35.7271 13.6L34.7191 13.492C34.8631 12.756 34.9631 12.08 35.0191 11.464C35.0831 10.848 35.1191 10.28 35.1271 9.76C35.1431 9.24 35.1511 8.76 35.1511 8.32V7.228ZM46.5741 6.088H47.5701V14.008H46.5741V6.088ZM40.5981 15.88H47.9061V16.696H40.5981V15.88ZM40.5981 13.204H41.5941V16.156H40.5981V13.204ZM41.7501 6.844C42.2941 6.844 42.7781 6.956 43.2021 7.18C43.6261 7.404 43.9621 7.72 44.2101 8.128C44.4581 8.528 44.5821 8.988 44.5821 9.508C44.5821 10.028 44.4581 10.492 44.2101 10.9C43.9621 11.3 43.6261 11.616 43.2021 11.848C42.7781 12.072 42.2941 12.184 41.7501 12.184C41.2141 12.184 40.7301 12.072 40.2981 11.848C39.8741 11.616 39.5381 11.3 39.2901 10.9C39.0421 10.492 38.9181 10.028 38.9181 9.508C38.9181 8.988 39.0421 8.528 39.2901 8.128C39.5381 7.72 39.8741 7.404 40.2981 7.18C40.7301 6.956 41.2141 6.844 41.7501 6.844ZM41.7501 7.708C41.3981 7.708 41.0821 7.784 40.8021 7.936C40.5221 8.088 40.2981 8.3 40.1301 8.572C39.9701 8.844 39.8901 9.156 39.8901 9.508C39.8901 9.868 39.9701 10.184 40.1301 10.456C40.2981 10.72 40.5221 10.928 40.8021 11.08C41.0821 11.232 41.3981 11.308 41.7501 11.308C42.1021 11.308 42.4181 11.232 42.6981 11.08C42.9861 10.928 43.2101 10.72 43.3701 10.456C43.5301 10.184 43.6101 9.868 43.6101 9.508C43.6101 9.156 43.5301 8.844 43.3701 8.572C43.2101 8.3 42.9861 8.088 42.6981 7.936C42.4181 7.784 42.1021 7.708 41.7501 7.708Z" fill="black"/>
</svg>
