<svg width="42" height="71" viewBox="0 0 42 71" fill="none" xmlns="http://www.w3.org/2000/svg">
<g clip-path="url(#clip0_173_2)">
<path d="M21 42C32.598 42 42 32.598 42 21C42 9.40202 32.598 0 21 0C9.40202 0 0 9.40202 0 21C0 32.598 9.40202 42 21 42Z" fill="#2DB400"/>
<path fill-rule="evenodd" clip-rule="evenodd" d="M13 14H18.507C18.507 14 23.505 21.31 23.657 21.507C23.807 21.704 23.824 21.507 23.824 21.507C23.591 20.377 23.342 19.867 23.342 18.06V14H28.828V27.542H23.342C23.342 27.542 18.445 20.621 18.296 20.43C18.15 20.239 18.128 20.43 18.128 20.43C18.318 21.365 18.484 21.52 18.484 23.142V27.542H13V14Z" fill="white"/>
</g>
<path d="M13.512 59V69.248H12.384V59H13.512ZM9.912 59.06H11.028V69.068H9.912V63.872H7.212V62.768H9.912V59.06ZM6.576 67.58C7.016 67.58 7.444 67.548 7.86 67.484C8.284 67.412 8.652 67.312 8.964 67.184V68.228C8.668 68.364 8.292 68.464 7.836 68.528C7.388 68.6 6.924 68.636 6.444 68.636H3.972V59.348H5.136V67.58H6.576ZM23.579 59H24.779V69.248H23.579V59ZM18.743 68.768C18.119 68.768 17.575 68.592 17.111 68.24C16.647 67.896 16.283 67.368 16.019 66.656C15.763 65.944 15.635 65.06 15.635 64.004C15.635 62.948 15.763 62.064 16.019 61.352C16.283 60.64 16.647 60.112 17.111 59.768C17.575 59.416 18.119 59.24 18.743 59.24C19.359 59.24 19.899 59.416 20.363 59.768C20.827 60.112 21.187 60.64 21.443 61.352C21.707 62.064 21.839 62.948 21.839 64.004C21.839 65.06 21.707 65.944 21.443 66.656C21.187 67.368 20.827 67.896 20.363 68.24C19.899 68.592 19.359 68.768 18.743 68.768ZM18.743 67.676C19.311 67.676 19.771 67.376 20.123 66.776C20.475 66.168 20.651 65.244 20.651 64.004C20.651 62.772 20.475 61.852 20.123 61.244C19.771 60.636 19.311 60.332 18.743 60.332C18.167 60.332 17.703 60.636 17.351 61.244C16.999 61.844 16.823 62.764 16.823 64.004C16.823 65.244 16.995 66.168 17.339 66.776C17.691 67.376 18.159 67.676 18.743 67.676ZM36.3939 59V69.248H35.1939V64.316H32.9739V68.636H27.2739V59.3H28.4499V62.828H31.7979V59.3H32.9739V63.2H35.1939V59H36.3939ZM31.7979 67.544V63.92H28.4499V67.544H31.7979Z" fill="#192547"/>
<defs>
<clipPath id="clip0_173_2">
<rect width="42" height="42" fill="white"/>
</clipPath>
</defs>
</svg>
