<svg width="100" height="100" viewBox="0 0 100 100" fill="none" xmlns="http://www.w3.org/2000/svg">
<path d="M50 95.5264C43.4211 95.5264 33.1579 94.2106 22.6316 87.1053C22.1053 86.8422 9.21056 78.9474 3.68424 60.7895C3.42109 60.2632 -0.526283 46.579 8.15793 37.6317C8.68424 36.8422 13.1579 31.8422 20.7895 30.5264C21.3158 23.6843 27.6316 4.47375 50 4.47375C72.3685 4.47375 78.6843 23.6843 79.2106 30.2632C86.579 31.8422 91.0527 36.8422 91.579 37.3685C100.263 46.579 96.3158 60.0001 96.0527 60.5264C90.5264 78.6843 77.8948 86.579 77.1053 87.1053C66.8421 94.2106 56.579 95.5264 50 95.5264Z" fill="white"/>
<path d="M50 96.3158C43.1579 96.3158 32.6316 94.7369 22.1053 87.8948C18.6842 85.7895 7.89477 77.3684 2.89477 61.0526C1.84214 57.6316 -0.526279 45.5263 7.63162 37.1053C8.42109 36.3158 12.8948 31.579 20 30C21.0527 22.1053 27.6316 3.94739 50 3.94739C72.1053 3.94739 78.9474 22.3684 80 30C86.8421 31.579 91.0527 35.7895 92.3685 37.1053C100.526 45.5263 98.1579 57.3684 97.1053 60.7895C91.8421 78.6842 79.4737 86.8421 77.8948 87.6316C67.3685 94.7369 56.8421 96.3158 50 96.3158ZM50 5.26318C28.1579 5.26318 21.8421 23.4211 21.3158 30.5263V31.0526H20.7895C13.9474 32.3684 9.47372 37.1053 8.68425 37.8948C1.05267 45.7895 3.42109 57.1053 4.21056 60.2632C8.94741 76.3158 19.4737 84.2105 22.6316 86.3158H22.8948C33.1579 93.1579 43.1579 94.7369 50 94.7369C56.579 94.7369 66.8421 93.4211 77.1053 86.3158C78.4211 85.5263 90.5264 77.6316 95.7895 60.2632C96.579 56.8421 98.9474 45.5263 91.3158 37.6316C90.2632 36.3158 86.0527 32.1053 79.2106 30.7895H78.6842V30.2632C77.8948 23.4211 71.579 5.26318 50 5.26318Z" fill="white"/>
<path d="M86.8422 86.8422C84.7369 86.8422 83.158 88.4211 83.158 90.5264C83.158 92.6316 84.7369 94.2106 86.8422 94.2106C88.9474 94.2106 90.5264 92.6316 90.5264 90.5264C90.5264 88.6843 88.6843 86.8422 86.8422 86.8422ZM86.8422 93.9474C85.0001 93.9474 83.6843 92.6316 83.6843 90.7895C83.6843 89.2106 85.0001 87.6316 86.8422 87.6316C88.4211 87.6316 90.0001 88.9474 90.0001 90.7895C89.7369 92.6316 88.4211 93.9474 86.8422 93.9474Z" fill="white"/>
<path d="M88.4211 92.6316V91.8421C88.4211 91.0526 88.1579 91.0526 87.8947 91.0526C88.1579 90.7895 88.4211 90.5263 88.4211 90C88.4211 88.9474 87.6316 88.6842 87.1053 88.6842H85V93.421H85.5263V91.3158H86.8421C87.6316 91.3158 87.6316 91.8421 87.6316 92.1053C87.6316 92.3684 87.6316 92.8947 87.6316 93.1579H88.4211C88.4211 92.8947 88.4211 92.8947 88.4211 92.6316ZM87.1053 90.5263H85.7895V88.9474H87.3684C87.6316 88.9474 88.1579 88.9474 88.1579 89.7368C87.8947 90.5263 87.3684 90.5263 87.1053 90.5263Z" fill="white"/>
<path d="M86.579 86.8422C84.4737 86.8422 82.8948 88.4211 82.8948 90.5264C82.8948 92.6316 84.4737 94.2106 86.579 94.2106C88.6843 94.2106 90.2632 92.6316 90.2632 90.5264C90.5264 88.6843 88.6843 86.8422 86.579 86.8422ZM86.579 93.9474C84.7369 93.9474 83.4211 92.6316 83.4211 90.7895C83.4211 88.9474 84.7369 87.6316 86.579 87.6316C88.4211 87.6316 89.7369 88.9474 89.7369 90.7895C89.7369 92.6316 88.4211 93.9474 86.579 93.9474Z" fill="white"/>
<path d="M88.4211 92.6316V91.8421C88.4211 91.0526 88.1579 91.0526 87.8947 91.0526C88.1579 90.7895 88.4211 90.5263 88.4211 90C88.4211 88.9474 87.6316 88.6842 87.1053 88.6842H85V93.421H85.5263V91.3158H86.8421C87.6316 91.3158 87.6316 91.8421 87.6316 92.1053C87.6316 92.3684 87.6316 92.8947 87.6316 93.1579H88.4211C88.4211 92.8947 88.4211 92.8947 88.4211 92.6316ZM87.1053 90.5263H85.7895V88.9474H87.3684C87.6316 88.9474 88.1579 88.9474 88.1579 89.7368C87.8947 90.5263 87.3684 90.5263 87.1053 90.5263Z" fill="white"/>
<path d="M90.2631 38.9474C90.2631 38.9474 85.5263 33.4211 77.6316 32.3684C77.6316 32.3684 76.0526 6.3158 50 6.3158C23.9473 6.3158 22.3684 32.3684 22.3684 32.3684C14.4737 33.4211 9.73681 38.9474 9.73681 38.9474C1.57892 47.3684 5.52628 60.2632 5.52628 60.2632C10.7894 77.8947 23.421 85.5263 23.421 85.5263C33.6842 92.3684 43.6842 93.6842 50 93.6842C56.3158 93.6842 66.3158 92.1053 76.5789 85.5263C76.5789 85.5263 89.2105 77.6316 94.4737 60.2632C94.4737 60.2632 98.6842 47.6316 90.2631 38.9474Z" fill="#DC2F34"/>
<path d="M87.1053 41.0526C87.1053 41.0526 83.1579 36.5789 74.2105 35.5263C74.2105 35.5263 73.6842 9.73682 50.2632 9.73682C26.8421 9.73682 26.3158 35.5263 26.3158 35.5263C17.1053 36.3158 13.1579 41.0526 13.1579 41.0526C5.52633 48.9473 9.4737 59.7368 9.4737 59.7368C14.4737 76.0526 26.0526 82.8947 26.0526 82.8947C35.5263 89.2105 44.4737 90.5263 50 90.5263C55.5263 90.5263 64.4737 89.2105 73.9474 82.8947C73.9474 82.8947 85.5263 76.0526 90.5263 59.7368C90.5263 59.7368 94.7369 48.6842 87.1053 41.0526Z" fill="white"/>
<path d="M87.1053 50.7894C87.1053 50.7894 85.2632 41.0526 75.7895 40.7894H67.6316C68.6842 38.421 68.9474 36.5789 68.9474 32.8947C68.9474 22.6315 60.5263 14.4736 50 14.4736C39.4737 14.4736 31.0527 22.3684 31.0527 32.8947C31.0527 36.3157 31.579 38.6842 32.6316 40.7894H23.9474C14.2105 41.5789 12.8948 50.7894 12.8948 50.7894C12.1053 57.6315 14.4737 62.1052 14.4737 62.1052C14.4737 62.1052 20.5263 78.9473 40 84.2105C40 84.2105 44.2105 85.5263 50.2632 85.5263C56.3158 85.5263 60.5263 84.2105 60.5263 84.2105C79.7369 78.9473 85.7895 62.1052 85.7895 62.1052C85.7895 62.1052 87.8948 57.6315 87.1053 50.7894ZM85 61.842C85 61.842 78.9474 78.421 60.2632 83.6842C60.2632 83.6842 56.0527 84.9999 50.2632 84.9999C44.4737 84.9999 40.2632 83.6842 40.2632 83.6842C21.3158 78.421 15.5263 61.842 15.5263 61.842C15.5263 61.842 13.1579 57.6315 13.9474 50.7894C13.9474 50.7894 15.5263 41.8421 25 41.5789H33.6842C32.3684 38.9473 31.8421 36.8421 31.8421 33.6842C31.8421 23.6842 39.7369 15.5263 50 15.5263H50.2632C60.7895 15.5263 68.4211 23.6842 68.4211 33.6842C68.4211 37.1052 67.8948 38.9473 66.579 41.5789H75.2632C84.7369 41.8421 86.3158 50.7894 86.3158 50.7894C87.3684 57.6315 85 61.842 85 61.842Z" fill="#DC2F34"/>
<path d="M31.3158 52.1052C29.2105 52.1052 27.3684 54.4736 27.3684 57.3684C27.3684 60.2631 29.2105 62.6315 31.3158 62.6315C33.421 62.6315 35.2631 60.2631 35.2631 57.3684C35.5263 54.2105 33.6842 52.1052 31.3158 52.1052Z" fill="#DC2F34"/>
<path d="M83.1578 46.8421C80 42.6316 74.7368 42.6316 74.7368 42.6316H62.1052L61.8421 42.8947C59.4736 46.579 55.5263 49.2105 49.9999 49.2105C46.0526 49.2105 40.7894 46.579 38.1578 42.8947V42.6316H25.2631C25.2631 42.6316 19.9999 42.6316 16.8421 46.8421C16.8421 46.8421 12.6315 51.0526 16.3157 61.0526C16.3157 61.0526 21.8421 76.8421 40.2631 81.8421C40.2631 81.8421 44.2105 83.1579 49.9999 83.1579C55.5263 83.1579 59.7368 81.8421 59.7368 81.8421C78.1578 76.579 83.6842 61.0526 83.6842 61.0526C87.3684 51.3158 83.1578 46.8421 83.1578 46.8421ZM51.0526 50.5263H59.2105V52.6316H56.0526V58.4211H59.2105V60.5263H52.6315C51.8421 60.5263 51.0526 59.7369 51.0526 58.9474V50.5263ZM49.4736 50.5263V52.8947H46.8421V58.6842H49.4736V61.0526H43.421C42.6315 61.0526 41.8421 60.2632 41.8421 59.4737V50.7895L49.4736 50.5263ZM34.2105 64.2105V68.4211H40.2631V70.7895H22.8947V68.4211H28.6842V64.2105C25.2631 63.1579 22.3684 60.5263 22.3684 57.3684C22.3684 53.4211 26.3157 50.2632 31.3157 50.2632C36.3157 50.2632 40.2631 53.4211 40.2631 57.3684C40.5263 60.5263 37.8947 63.1579 34.2105 64.2105ZM59.2105 64.7369H52.8947V69.7369C52.8947 70.7895 51.8421 71.8421 50.2631 71.8421C48.6842 71.8421 47.6315 70.7895 47.6315 69.7369V69.4737V64.7369H41.8421V62.3684H59.4736L59.2105 64.7369ZM70.5263 65.5263C70.5263 71.0526 62.1052 70.7895 62.1052 70.7895C61.3157 70.7895 61.0526 70.2632 61.0526 69.4737C61.0526 68.6842 61.5789 68.1579 62.3684 68.1579C65.7894 67.3684 65.7894 65.2632 65.7894 65.2632V53.1579H61.0526V50.7895H70.7894V65.5263H70.5263ZM77.6315 69.2105C77.6315 70.2632 76.5789 71.3158 75.2631 71.3158C73.6842 71.3158 72.6315 70.2632 72.6315 69.2105V50H77.6315V69.2105Z" fill="#DC2F34"/>
<path d="M41.8421 28.4211C41.8421 28.4211 44.2105 27.1053 45.2631 28.1579C45.2631 28.1579 46.0526 28.6842 45.7895 27.3684C45.7895 27.3684 44.4737 24.7368 41.5789 27.6316C41.5789 27.8947 40 29.4737 41.8421 28.4211Z" fill="#DC2F34"/>
<path d="M55.2632 25.2631L53.1579 26.3158C51.8421 27.1053 52.6316 27.8947 52.6316 27.8947C53.6842 28.9474 54.4737 28.1579 54.4737 28.1579C55.7895 26.5789 57.3685 27.3684 57.3685 27.3684C57.1053 24.2105 55.2632 25.2631 55.2632 25.2631Z" fill="#DC2F34"/>
<path d="M51.8421 34.2106C52.8947 34.2106 53.9473 33.4211 53.6842 32.1053C53.6842 31.0527 52.8947 30 51.5789 30.2632C50.5263 30.2632 49.4736 31.0527 49.4736 32.3685C49.7368 33.4211 50.7894 34.4737 51.8421 34.2106Z" fill="#DC2F34"/>
<path d="M46.0527 31.842C46.0527 31.842 44.4737 32.1052 46.3158 33.421C46.3158 33.421 48.1579 34.4736 48.1579 33.421C48.1579 33.421 46.8422 33.6841 47.8948 32.1052C47.8948 32.1052 47.8948 30.2631 46.579 29.9999C46.579 29.7368 47.6316 31.842 46.0527 31.842Z" fill="#DC2F34"/>
<path d="M44.4737 31.5789C44.4737 31.5789 46.0527 31.0526 44.2106 31.0526C44.2106 31.0526 42.3685 31.3157 41.8421 29.9999C41.8421 29.9999 40.2632 28.6842 41.3158 30.2631C41.0527 30.2631 41.8421 32.3684 44.4737 31.5789Z" fill="#DC2F34"/>
<path d="M55.5264 37.3684L54.2106 38.1579C54.2106 38.1579 53.1579 38.6842 53.4211 37.3684C53.4211 37.3684 53.1579 34.2105 51.579 35.5263C51.579 35.5263 50.2632 37.1053 49.2106 37.3684C49.2106 37.3684 47.3685 38.4211 45.5264 37.1053C45.5264 37.1053 43.1579 35 42.1053 35C42.1053 35 40.7895 35 42.1053 35.5263C42.1053 35.5263 42.8948 35.7895 43.9474 36.3158C43.9474 36.3158 45.5264 38.1579 46.3158 38.6842C46.3158 38.6842 47.6316 39.4737 50 39.7368C50 39.7368 53.4211 40.2632 55.7895 37.8947C56.0527 37.6316 56.579 36.8421 55.5264 37.3684ZM51.0527 38.1579L50 37.8947C50 37.8947 51.3158 37.3684 51.8421 36.8421C52.1053 37.1053 51.8421 38.1579 51.0527 38.1579Z" fill="#DC2F34"/>
<path d="M64.4737 33.9474C64.4737 33.6842 64.4737 33.6842 64.4737 33.4211C64.4737 33.1579 64.4737 33.1579 64.4737 32.8948C64.7368 31.0527 64.4737 26.8421 60.2631 21.8421C60.2631 21.8421 55.2631 15 46.8421 18.9474C46.8421 18.9474 43.421 16.579 40.7895 19.2105C40.7895 19.2105 38.421 21.0527 39.7368 24.4737C39.7368 24.4737 39.2105 25.2632 38.421 26.3158C36.8421 28.6842 36.0526 31.3158 36.0526 33.6842C36.0526 39.7369 39.7368 44.7369 45 47.1053C45.7895 47.3684 46.5789 47.8948 47.3684 48.1579C47.3684 48.1579 54.2105 50.5263 60.2631 44.4737C61.3158 43.4211 62.1052 42.3684 62.8947 41.0527C63.421 40 67.1052 36.8421 64.4737 33.9474ZM60.7895 37.8948C60 41.0527 57.6316 42.8948 56.5789 43.6842C56.3158 43.9474 56.0526 43.9474 56.0526 43.9474C54.2105 45 52.3684 45.5263 50.2631 45.5263C43.9474 45.5263 38.6842 40.5263 38.421 34.2105C38.1579 29.7369 41.8421 26.0526 41.8421 26.0526C45.2631 26.579 47.1052 25.2632 47.1052 25.2632C52.1052 28.1579 52.6316 24.7369 52.6316 24.7369C50.2631 25 51.3158 23.6842 51.3158 23.6842C51.8421 22.8948 53.421 23.1579 53.421 23.1579C61.0526 24.4737 58.6842 29.4737 58.6842 29.4737C61.0526 30.7895 60 31.8421 60 31.8421C58.421 31.3158 58.1579 32.1053 58.421 32.6316C58.6842 33.1579 59.2105 33.6842 59.7368 34.2105C60 34.4737 60.5263 35 60.5263 35.5263C60.5263 35.7895 60.7895 35.7895 60.7895 36.0527V36.3158C60.7895 36.579 60.7895 36.8421 60.7895 37.1053C60.7895 37.1053 61.0526 37.1053 61.0526 36.8421C61.5789 35.7895 63.1579 34.7369 63.1579 36.3158C62.6316 38.4211 60.7895 37.8948 60.7895 37.8948Z" fill="#DC2F34"/>
<path d="M60 35.5264C60 35.7895 60.2632 35.7895 60.2632 36.0527C60.2632 35.7895 60.2632 35.7895 60 35.5264Z" fill="white"/>
</svg>
