<svg width="37" height="8" viewBox="0 0 37 8" fill="none" xmlns="http://www.w3.org/2000/svg">
<path d="M12.1523 0.850586V5.70531H9.63916C9.61618 5.70535 9.59342 5.69902 9.57218 5.68667C9.55095 5.67432 9.53165 5.6562 9.5154 5.63335C9.49915 5.6105 9.48627 5.58337 9.47749 5.5535C9.46871 5.52364 9.4642 5.49164 9.46423 5.45932V4.26836H8.43323V6.40429C8.4332 6.50121 8.44675 6.59719 8.47312 6.68674C8.49948 6.7763 8.53813 6.85766 8.58687 6.9262C8.63561 6.99473 8.69347 7.04909 8.75715 7.08617C8.82083 7.12324 8.88909 7.1423 8.95801 7.14226H13.1836V0.850586H12.1523Z" fill="#BED600"/>
<path d="M15.5402 0.850586H14.5092V7.14226H15.5402V0.850586Z" fill="#BED600"/>
<path d="M21.0914 0.850586H16.875V7.14226H17.906V2.28753H20.4192C20.4422 2.2875 20.4649 2.29383 20.4862 2.30618C20.5074 2.31853 20.5267 2.33664 20.5429 2.35949C20.5592 2.38235 20.5721 2.40948 20.5809 2.43934C20.5896 2.4692 20.5941 2.50121 20.5941 2.53353V7.14226H21.6251V1.58856C21.6229 1.39174 21.5657 1.20405 21.4659 1.06599C21.3662 0.927926 21.2318 0.850561 21.0918 0.850586" fill="#BED600"/>
<path d="M4.41012 3.7244L4.26293 3.569L3.82113 3.14182V3.08992V2.90993C3.82309 2.5884 3.80164 2.26744 3.75713 1.95206C3.75713 1.92626 3.74796 1.88726 3.74796 1.86206C3.73879 1.83626 3.73879 1.79727 3.72961 1.75857C3.75811 1.7243 3.78898 1.69414 3.82177 1.66857C4.39845 1.06444 5.0341 0.580476 5.70906 0.231622C5.72741 0.218723 5.75514 0.205823 5.77306 0.192924C5.78223 0.192924 5.79141 0.180024 5.80058 0.180024C6.02351 0.0742087 6.25603 0.0136023 6.49112 3.05617e-05H6.51863C6.64445 -0.00157567 6.76652 0.0601791 6.86277 0.174128C6.95902 0.288078 7.0231 0.446699 7.04341 0.621308C7.04201 0.639589 7.04526 0.657978 7.05259 0.673206C7.07863 0.943521 7.09097 1.2161 7.08949 1.48888C7.08943 2.0076 7.04648 2.52455 6.9615 3.02932V3.05512C6.86745 3.59035 6.63845 4.05937 6.31704 4.37507C6.07234 4.61736 5.78656 4.7647 5.48849 4.80226L4.41012 3.7244Z" fill="#BED600"/>
<path d="M4.02347 5.97689L3.66445 5.6403L3.65527 5.6274L3.66445 5.5239L3.7197 4.94132L3.72887 4.88943L3.81164 4.09985L4.00491 4.21625L4.41023 4.44934L4.57599 4.53934L5.42289 5.03132C5.57313 5.2246 5.68989 5.46371 5.76421 5.7303C5.76519 5.74007 5.76841 5.74913 5.77338 5.75609C5.77338 5.76899 5.77338 5.76899 5.78256 5.78189C5.79173 5.80769 5.79173 5.83379 5.8009 5.85959C5.81027 5.89278 5.81645 5.92759 5.81925 5.96309C5.84068 6.10353 5.84378 6.24827 5.82842 6.39027C5.81938 6.52235 5.79129 6.65045 5.74587 6.76676C5.65037 7.05012 5.48397 7.27408 5.27847 7.39582C5.07297 7.51757 4.84278 7.52857 4.63188 7.42673H4.62271C4.61353 7.42673 4.60436 7.41384 4.59519 7.41384C4.59397 7.41388 4.59277 7.41357 4.59164 7.41294C4.59052 7.4123 4.58949 7.41135 4.58864 7.41015C4.58778 7.40894 4.5871 7.4075 4.58665 7.40592C4.5862 7.40434 4.58598 7.40264 4.58601 7.40094C4.53993 7.37514 4.49386 7.34904 4.45802 7.32324C4.12888 7.07858 3.8786 6.66643 3.75831 6.17098L4.02518 6.23578L4.12651 6.26158V6.06748L4.02347 5.97689Z" fill="#BED600"/>
<path d="M30.0671 0.850586H29.0361V7.14226H30.0671V0.850586Z" fill="#BED600"/>
<path d="M23.4758 0.850586C23.4069 0.850547 23.3387 0.869608 23.275 0.906681C23.2113 0.943753 23.1534 0.998111 23.1047 1.06665C23.056 1.13518 23.0173 1.21655 22.9909 1.3061C22.9646 1.39566 22.951 1.49164 22.951 1.58856V7.14226H23.982V5.17463H26.6793V7.14226H27.7103V0.850586H23.4758ZM23.9823 2.53353C23.9822 2.50121 23.9867 2.4692 23.9955 2.43934C24.0043 2.40948 24.0172 2.38235 24.0334 2.35949C24.0497 2.33664 24.069 2.31853 24.0902 2.30618C24.1115 2.29383 24.1342 2.2875 24.1572 2.28753H26.6704V3.73738H23.9729V2.53353H23.9823Z" fill="#BED600"/>
<path d="M35.6186 0.850586H31.3931V7.14226H32.4149V2.28753H34.9373C34.9602 2.2875 34.983 2.29383 35.0042 2.30618C35.0255 2.31853 35.0448 2.33664 35.061 2.35949C35.0773 2.38235 35.0901 2.40948 35.0989 2.43934C35.1077 2.4692 35.1122 2.50121 35.1122 2.53353V3.72448H36.1432V1.58856C36.1417 1.39349 36.0859 1.207 35.9878 1.06906C35.8897 0.931119 35.7571 0.852692 35.6184 0.850586" fill="#BED600"/>
<path d="M2.67949 3.7244L2.82668 3.569L3.26848 3.14182V3.08992V2.90993C3.26652 2.5884 3.28797 2.26744 3.33248 1.95206C3.33248 1.92626 3.34165 1.88726 3.34165 1.86206C3.35082 1.83626 3.35082 1.79727 3.36 1.75857C3.3315 1.7243 3.30063 1.69415 3.26784 1.66857C2.69116 1.06444 2.05551 0.580476 1.38055 0.231622C1.3622 0.218723 1.33447 0.205823 1.31655 0.192924C1.30738 0.192924 1.2982 0.180024 1.28903 0.180024C1.0661 0.0742087 0.833585 0.0136023 0.598496 3.05617e-05H0.570977C0.445164 -0.00157567 0.323095 0.0601791 0.226844 0.174128C0.130594 0.288078 0.0665149 0.446699 0.0461957 0.621308C0.0476012 0.639589 0.0443506 0.657978 0.0370224 0.673206C0.0109802 0.943522 -0.00135239 1.2161 0.0001174 1.48888C0.000178227 2.0076 0.0431315 2.52455 0.128113 3.02932V3.05512C0.222158 3.59035 0.451157 4.05937 0.772569 4.37507C1.01727 4.61736 1.30305 4.7647 1.60113 4.80226L2.67949 3.7244Z" fill="#BED600"/>
<path d="M3.05684 5.97689L3.41587 5.6403L3.42504 5.6274L3.41587 5.5239L3.36062 4.94132L3.35145 4.88943L3.26804 4.09985L3.07476 4.21625L2.66945 4.44934L2.50369 4.53934L1.67513 5.03132C1.5249 5.2246 1.40814 5.46371 1.33381 5.7303C1.33284 5.74007 1.32961 5.74913 1.32464 5.75609C1.32464 5.76899 1.32464 5.76899 1.31547 5.78189C1.30629 5.80769 1.30629 5.83379 1.29712 5.85959C1.28775 5.89278 1.28158 5.92759 1.27877 5.96309C1.25735 6.10353 1.25424 6.24827 1.2696 6.39027C1.27882 6.52196 1.30698 6.64964 1.35237 6.76556C1.44787 7.04893 1.61427 7.27288 1.81977 7.39462C2.02526 7.51637 2.25546 7.52737 2.46636 7.42553H2.47553C2.48471 7.42553 2.49388 7.41263 2.50305 7.41263C2.50426 7.41268 2.50547 7.41237 2.5066 7.41174C2.50772 7.4111 2.50874 7.41015 2.5096 7.40895C2.51046 7.40774 2.51113 7.4063 2.51159 7.40472C2.51204 7.40314 2.51225 7.40144 2.51222 7.39973C2.5583 7.37394 2.60438 7.34784 2.64022 7.32204C2.96935 7.07738 3.21964 6.66523 3.33993 6.16978L3.07604 6.23578L2.97471 6.26158V6.06748L3.05684 5.97689Z" fill="#BED600"/>
</svg>
