<svg width="48" height="48" viewBox="0 0 48 48" fill="none" xmlns="http://www.w3.org/2000/svg">
<g clip-path="url(#clip0_98_4)">
<circle cx="24" cy="24" r="24" fill="black"/>
<path d="M17.2 10.976H30.88V13.256H20.056V21.272H17.2V10.976ZM17.2 20.552H31.072V22.832H17.2V20.552Z" fill="white"/>
<path d="M15.064 24.8515C16.024 24.8515 16.928 25.0035 17.776 25.3075C18.624 25.6115 19.368 26.0435 20.008 26.6035C20.648 27.1635 21.144 27.8195 21.496 28.5715C21.864 29.3235 22.048 30.1475 22.048 31.0435C22.048 31.9395 21.864 32.7715 21.496 33.5395C21.144 34.2915 20.648 34.9475 20.008 35.5075C19.368 36.0675 18.624 36.4995 17.776 36.8035C16.928 37.1075 16.024 37.2595 15.064 37.2595C14.088 37.2595 13.176 37.1075 12.328 36.8035C11.496 36.4995 10.752 36.0675 10.096 35.5075C9.456 34.9475 8.952 34.2915 8.584 33.5395C8.232 32.7715 8.056 31.9395 8.056 31.0435C8.056 30.1475 8.232 29.3235 8.584 28.5715C8.952 27.8195 9.456 27.1635 10.096 26.6035C10.752 26.0435 11.496 25.6115 12.328 25.3075C13.176 25.0035 14.088 24.8515 15.064 24.8515ZM15.064 27.2755C14.264 27.2755 13.544 27.4355 12.904 27.7555C12.264 28.0595 11.752 28.4995 11.368 29.0755C10.984 29.6355 10.792 30.2915 10.792 31.0435C10.792 31.7955 10.984 32.4595 11.368 33.0355C11.752 33.5955 12.264 34.0355 12.904 34.3555C13.544 34.6755 14.264 34.8355 15.064 34.8355C15.864 34.8355 16.584 34.6755 17.224 34.3555C17.864 34.0355 18.368 33.5955 18.736 33.0355C19.12 32.4595 19.312 31.7955 19.312 31.0435C19.312 30.2915 19.12 29.6355 18.736 29.0755C18.368 28.4995 17.864 28.0595 17.224 27.7555C16.584 27.4355 15.864 27.2755 15.064 27.2755Z" fill="white"/>
<path d="M26.152 24.9235H28.984V28.5235H37.192V24.9235H40.024V37.0435H26.152V24.9235ZM28.984 31.0435V34.5475H37.192V31.0435H28.984Z" fill="white"/>
</g>
<defs>
<clipPath id="clip0_98_4">
<rect width="48" height="48" fill="white"/>
</clipPath>
</defs>
</svg>
